<svg width="258" height="162" viewBox="0 0 258 162" fill="none" xmlns="http://www.w3.org/2000/svg">
<path d="M74.208 17.6C75.76 17.6 76.536 18.304 76.536 19.712C76.536 21.616 75.944 23.936 74.76 26.672C73.576 29.408 71.928 31.776 69.816 33.776C67.704 35.792 65.312 36.8 62.64 36.8C61.28 36.8 60.248 36.56 59.544 36.08C58.824 35.6 58.464 34.904 58.464 33.992C58.464 33.544 58.584 33.104 58.824 32.672C59.064 32.24 59.336 31.912 59.64 31.688C59.912 32.136 60.296 32.504 60.792 32.792C61.288 33.08 61.92 33.224 62.688 33.224C63.552 33.224 64.448 32.96 65.376 32.432C64.448 32.192 63.76 31.704 63.312 30.968C62.88 30.216 62.608 29.376 62.496 28.448C62.4 27.52 62.352 26.32 62.352 24.848C62.336 23.696 62.304 22.776 62.256 22.088C62.224 21.4 62.112 20.744 61.92 20.12C61.728 19.496 61.424 19 61.008 18.632C61.856 17.944 62.808 17.6 63.864 17.6C64.792 17.6 65.488 17.864 65.952 18.392C66.432 18.92 66.744 19.6 66.888 20.432C67.048 21.264 67.128 22.288 67.128 23.504L67.104 26C67.104 27.088 67.168 27.984 67.296 28.688C67.424 29.376 67.68 29.896 68.064 30.248C69.136 29.032 70 27.552 70.656 25.808C71.328 24.064 71.664 22.136 71.664 20.024C71.664 19.576 71.624 19.112 71.544 18.632C71.864 18.328 72.272 18.08 72.768 17.888C73.28 17.696 73.76 17.6 74.208 17.6ZM90.2848 19.424C91.2128 19.424 91.9648 19.8 92.5408 20.552C93.1328 21.288 93.4288 22.248 93.4288 23.432C93.4288 25.112 93.0448 26.656 92.2768 28.064C91.5088 29.456 90.4608 30.56 89.1328 31.376C87.8208 32.192 86.3728 32.6 84.7888 32.6C83.4608 32.6 82.3008 32.344 81.3088 31.832C80.3168 31.304 79.5488 30.568 79.0048 29.624C78.4768 28.664 78.2128 27.552 78.2128 26.288C78.2128 24.608 78.6048 23.112 79.3888 21.8C80.1728 20.488 81.2528 19.464 82.6288 18.728C84.0208 17.976 85.5888 17.6 87.3328 17.6C87.8768 17.6 88.4448 17.664 89.0368 17.792C89.1968 18.352 89.2688 18.96 89.2528 19.616C89.6048 19.488 89.9488 19.424 90.2848 19.424ZM85.5568 30.128C86.4848 30.128 87.2528 29.76 87.8608 29.024C88.4848 28.288 88.8768 27.272 89.0368 25.976C87.8208 25.304 87.2128 24.28 87.2128 22.904C87.2128 22.216 87.3648 21.6 87.6688 21.056C87.9728 20.496 88.3808 20.072 88.8928 19.784C87.7088 19.848 86.6688 20.184 85.7728 20.792C84.8768 21.384 84.1808 22.168 83.6848 23.144C83.2048 24.104 82.9648 25.168 82.9648 26.336C82.9648 27.648 83.1888 28.608 83.6368 29.216C84.1008 29.824 84.7408 30.128 85.5568 30.128ZM109.983 29.24C109.983 30.28 110.231 31.008 110.727 31.424C109.815 32.208 108.863 32.6 107.871 32.6C107.007 32.6 106.343 32.408 105.879 32.024C105.431 31.64 105.159 31.048 105.063 30.248L104.823 30.128C104.167 30.912 103.399 31.52 102.519 31.952C101.639 32.384 100.671 32.6 99.6148 32.6C98.3348 32.6 97.3828 32.28 96.7588 31.64C96.1348 31 95.8228 30.024 95.8228 28.712C95.8228 28.12 95.8708 27.496 95.9668 26.84C96.0628 26.168 96.2068 25.368 96.3988 24.44C96.5268 23.8 96.6388 23.168 96.7348 22.544C96.8308 21.904 96.8788 21.376 96.8788 20.96C96.8788 20.496 96.8308 20.072 96.7348 19.688C96.6548 19.304 96.5348 19 96.3748 18.776C97.0308 18.44 97.7108 18.16 98.4148 17.936C99.1348 17.712 99.7108 17.6 100.143 17.6C100.799 17.6 101.271 17.736 101.559 18.008C101.863 18.264 102.015 18.696 102.015 19.304C102.015 19.688 101.935 20.304 101.775 21.152C101.615 22 101.447 22.856 101.271 23.72C101.095 24.552 100.927 25.368 100.767 26.168C100.623 26.968 100.551 27.536 100.551 27.872C100.551 28.496 100.679 28.952 100.935 29.24C101.191 29.528 101.599 29.672 102.159 29.672C102.687 29.672 103.223 29.512 103.767 29.192C104.327 28.856 104.815 28.408 105.231 27.848C105.455 26.456 105.903 24.312 106.575 21.416L105.231 19.4C106.335 18.744 107.239 18.28 107.943 18.008C108.663 17.736 109.335 17.6 109.959 17.6C110.599 17.6 111.055 17.736 111.327 18.008C111.615 18.28 111.759 18.736 111.759 19.376C111.759 19.584 111.695 19.968 111.567 20.528C111.455 21.072 111.327 21.672 111.183 22.328C110.815 23.848 110.519 25.176 110.295 26.312C110.087 27.432 109.983 28.408 109.983 29.24ZM116.863 32.6C115.887 32.6 115.175 32.352 114.727 31.856C114.279 31.36 114.055 30.616 114.055 29.624C114.055 29.048 114.207 27.864 114.511 26.072C114.831 24.28 115.183 22.544 115.567 20.864L114.295 18.944C114.903 18.528 115.487 18.2 116.047 17.96C116.623 17.72 117.199 17.6 117.775 17.6C118.431 17.6 118.919 17.76 119.239 18.08C119.575 18.4 119.743 18.848 119.743 19.424C119.743 19.92 119.679 20.408 119.551 20.888C119.423 21.368 119.231 21.944 118.975 22.616L119.215 22.736C119.631 21.568 120.031 20.632 120.415 19.928C120.799 19.208 121.255 18.648 121.783 18.248C122.311 17.832 122.959 17.624 123.727 17.624C124.463 17.624 125.047 17.84 125.479 18.272C125.911 18.688 126.127 19.256 126.127 19.976C126.127 20.824 125.855 21.52 125.311 22.064C124.783 22.608 124.031 22.88 123.055 22.88C122.303 22.88 121.615 23.16 120.991 23.72C120.367 24.28 119.879 25.048 119.527 26.024C119.175 26.984 118.999 28.056 118.999 29.24C118.999 30.232 119.167 30.96 119.503 31.424C118.655 32.208 117.775 32.6 116.863 32.6ZM143.041 18.728C143.681 18.728 144.113 18.816 144.337 18.992C144.577 19.168 144.697 19.512 144.697 20.024C144.697 20.472 144.569 21.016 144.313 21.656C143.641 21.432 142.889 21.32 142.057 21.32H141.673C141.305 22.632 141.001 23.904 140.761 25.136C140.521 26.352 140.385 27.584 140.353 28.832L141.697 31.088C141.169 31.584 140.593 31.96 139.969 32.216C139.345 32.472 138.737 32.6 138.145 32.6C137.281 32.6 136.601 32.384 136.105 31.952C135.625 31.52 135.385 30.72 135.385 29.552C135.385 28.784 135.481 27.928 135.673 26.984C135.865 26.024 136.137 24.808 136.489 23.336L136.873 21.8C136.745 21.816 136.545 21.824 136.273 21.824C135.633 21.824 135.193 21.736 134.953 21.56C134.729 21.384 134.617 21.048 134.617 20.552C134.617 20.072 134.745 19.528 135.001 18.92C135.673 19.128 136.401 19.232 137.185 19.232C137.137 18.528 136.953 17.784 136.633 17C137.241 16.472 137.913 16.048 138.649 15.728C139.401 15.408 140.161 15.248 140.929 15.248C141.585 15.248 142.049 15.392 142.321 15.68C142.609 15.968 142.753 16.44 142.753 17.096C142.753 17.416 142.649 17.968 142.441 18.752C142.569 18.736 142.769 18.728 143.041 18.728ZM159.214 21.08C159.214 22.184 158.838 23.144 158.086 23.96C157.334 24.76 156.254 25.376 154.846 25.808C153.454 26.224 151.798 26.432 149.878 26.432V26.648C149.878 27.736 150.062 28.592 150.43 29.216C150.814 29.824 151.342 30.128 152.014 30.128C152.83 30.128 153.502 29.832 154.03 29.24C154.558 28.632 154.838 27.84 154.87 26.864C155.83 26.864 156.558 27.04 157.054 27.392C157.566 27.744 157.822 28.256 157.822 28.928C157.822 29.6 157.542 30.216 156.982 30.776C156.422 31.336 155.654 31.776 154.678 32.096C153.718 32.432 152.654 32.6 151.486 32.6C149.486 32.6 147.926 32.072 146.806 31.016C145.686 29.96 145.126 28.488 145.126 26.6C145.126 24.888 145.534 23.352 146.35 21.992C147.166 20.616 148.294 19.544 149.734 18.776C151.174 17.992 152.79 17.6 154.582 17.6C156.054 17.6 157.19 17.904 157.99 18.512C158.806 19.12 159.214 19.976 159.214 21.08ZM153.766 20.408C152.982 20.408 152.246 20.808 151.558 21.608C150.886 22.408 150.406 23.416 150.118 24.632C151.702 24.504 152.918 24.176 153.766 23.648C154.63 23.12 155.062 22.432 155.062 21.584C155.062 21.232 154.942 20.952 154.702 20.744C154.462 20.52 154.15 20.408 153.766 20.408ZM172.225 26.96C172.577 27.728 173.017 28.4 173.545 28.976C174.089 29.552 174.777 30.008 175.609 30.344C174.601 31.848 173.297 32.6 171.697 32.6C170.961 32.6 170.353 32.408 169.873 32.024C169.393 31.64 168.865 30.92 168.289 29.864L167.161 27.752C166.089 28.696 165.553 29.6 165.553 30.464C165.553 30.864 165.617 31.232 165.745 31.568C164.609 32.256 163.537 32.6 162.529 32.6C161.873 32.6 161.337 32.392 160.921 31.976C160.521 31.544 160.321 30.984 160.321 30.296C160.321 29.464 160.689 28.64 161.425 27.824C162.161 26.992 163.305 26.12 164.857 25.208L165.553 24.8L164.713 23.264C164.361 22.496 163.913 21.824 163.369 21.248C162.841 20.672 162.161 20.216 161.329 19.88C162.321 18.36 163.625 17.6 165.241 17.6C165.977 17.6 166.585 17.8 167.065 18.2C167.545 18.584 168.073 19.304 168.649 20.36L169.705 22.304C170.665 21.392 171.145 20.536 171.145 19.736C171.145 19.336 171.081 18.968 170.953 18.632C172.073 17.928 173.145 17.576 174.169 17.576C174.825 17.576 175.353 17.792 175.753 18.224C176.169 18.64 176.377 19.2 176.377 19.904C176.377 20.736 176.009 21.568 175.273 22.4C174.537 23.216 173.393 24.08 171.841 24.992L171.313 25.304L172.225 26.96ZM187.057 18.728C187.697 18.728 188.129 18.816 188.353 18.992C188.593 19.168 188.713 19.512 188.713 20.024C188.713 20.472 188.585 21.016 188.329 21.656C187.657 21.432 186.905 21.32 186.073 21.32H185.689C185.321 22.632 185.017 23.904 184.777 25.136C184.537 26.352 184.401 27.584 184.369 28.832L185.713 31.088C185.185 31.584 184.609 31.96 183.985 32.216C183.361 32.472 182.753 32.6 182.161 32.6C181.297 32.6 180.617 32.384 180.121 31.952C179.641 31.52 179.401 30.72 179.401 29.552C179.401 28.784 179.497 27.928 179.689 26.984C179.881 26.024 180.153 24.808 180.505 23.336L180.889 21.8C180.761 21.816 180.561 21.824 180.289 21.824C179.649 21.824 179.209 21.736 178.969 21.56C178.745 21.384 178.633 21.048 178.633 20.552C178.633 20.072 178.761 19.528 179.017 18.92C179.689 19.128 180.417 19.232 181.201 19.232C181.153 18.528 180.969 17.784 180.649 17C181.257 16.472 181.929 16.048 182.665 15.728C183.417 15.408 184.177 15.248 184.945 15.248C185.601 15.248 186.065 15.392 186.337 15.68C186.625 15.968 186.769 16.44 186.769 17.096C186.769 17.416 186.665 17.968 186.457 18.752C186.585 18.736 186.785 18.728 187.057 18.728ZM199.553 32.6C198.577 32.6 197.865 32.352 197.417 31.856C196.969 31.36 196.745 30.616 196.745 29.624C196.745 28.968 196.881 27.856 197.153 26.288C197.425 24.72 197.825 22.584 198.353 19.88L198.881 17.072L197.537 15.152C198.257 14.624 199.009 14.2 199.793 13.88C200.577 13.56 201.321 13.4 202.025 13.4C202.777 13.4 203.305 13.536 203.609 13.808C203.913 14.064 204.065 14.496 204.065 15.104C204.065 15.488 204.001 15.992 203.873 16.616C203.761 17.224 203.577 18.056 203.321 19.112C202.985 20.552 202.737 21.64 202.577 22.376L202.817 22.496C203.761 20.864 204.817 19.64 205.985 18.824C207.169 18.008 208.385 17.6 209.633 17.6C210.609 17.6 211.337 17.84 211.817 18.32C212.297 18.784 212.537 19.512 212.537 20.504C212.537 21.048 212.481 21.616 212.369 22.208C212.257 22.8 212.089 23.592 211.865 24.584C211.609 25.656 211.417 26.536 211.289 27.224C211.177 27.896 211.121 28.568 211.121 29.24C211.121 30.232 211.289 30.96 211.625 31.424C210.777 32.208 209.897 32.6 208.985 32.6C208.009 32.6 207.297 32.352 206.849 31.856C206.401 31.36 206.177 30.616 206.177 29.624C206.177 28.968 206.249 28.296 206.393 27.608C206.537 26.92 206.745 26.136 207.017 25.256C207.225 24.52 207.377 23.944 207.473 23.528C207.569 23.096 207.617 22.712 207.617 22.376C207.617 21.704 207.345 21.368 206.801 21.368C206.193 21.368 205.481 21.72 204.665 22.424C203.849 23.112 203.145 24.064 202.553 25.28C201.977 26.48 201.689 27.8 201.689 29.24C201.689 30.232 201.857 30.96 202.193 31.424C201.345 32.208 200.465 32.6 199.553 32.6ZM228.729 21.08C228.729 22.184 228.353 23.144 227.601 23.96C226.849 24.76 225.769 25.376 224.361 25.808C222.969 26.224 221.313 26.432 219.393 26.432V26.648C219.393 27.736 219.577 28.592 219.945 29.216C220.329 29.824 220.857 30.128 221.529 30.128C222.345 30.128 223.017 29.832 223.545 29.24C224.073 28.632 224.353 27.84 224.385 26.864C225.345 26.864 226.073 27.04 226.569 27.392C227.081 27.744 227.337 28.256 227.337 28.928C227.337 29.6 227.057 30.216 226.497 30.776C225.937 31.336 225.169 31.776 224.193 32.096C223.233 32.432 222.169 32.6 221.001 32.6C219.001 32.6 217.441 32.072 216.321 31.016C215.201 29.96 214.641 28.488 214.641 26.6C214.641 24.888 215.049 23.352 215.865 21.992C216.681 20.616 217.809 19.544 219.249 18.776C220.689 17.992 222.305 17.6 224.097 17.6C225.569 17.6 226.705 17.904 227.505 18.512C228.321 19.12 228.729 19.976 228.729 21.08ZM223.281 20.408C222.497 20.408 221.761 20.808 221.073 21.608C220.401 22.408 219.921 23.416 219.633 24.632C221.217 24.504 222.433 24.176 223.281 23.648C224.145 23.12 224.577 22.432 224.577 21.584C224.577 21.232 224.457 20.952 224.217 20.744C223.977 20.52 223.665 20.408 223.281 20.408ZM233.629 32.6C232.653 32.6 231.941 32.352 231.493 31.856C231.045 31.36 230.821 30.616 230.821 29.624C230.821 29.048 230.973 27.864 231.277 26.072C231.597 24.28 231.949 22.544 232.333 20.864L231.061 18.944C231.669 18.528 232.253 18.2 232.813 17.96C233.389 17.72 233.965 17.6 234.541 17.6C235.197 17.6 235.685 17.76 236.005 18.08C236.341 18.4 236.509 18.848 236.509 19.424C236.509 19.92 236.445 20.408 236.317 20.888C236.189 21.368 235.997 21.944 235.741 22.616L235.981 22.736C236.397 21.568 236.797 20.632 237.181 19.928C237.565 19.208 238.021 18.648 238.549 18.248C239.077 17.832 239.725 17.624 240.493 17.624C241.229 17.624 241.813 17.84 242.245 18.272C242.677 18.688 242.893 19.256 242.893 19.976C242.893 20.824 242.621 21.52 242.077 22.064C241.549 22.608 240.797 22.88 239.821 22.88C239.069 22.88 238.381 23.16 237.757 23.72C237.133 24.28 236.645 25.048 236.293 26.024C235.941 26.984 235.765 28.056 235.765 29.24C235.765 30.232 235.933 30.96 236.269 31.424C235.421 32.208 234.541 32.6 233.629 32.6ZM257.183 21.08C257.183 22.184 256.807 23.144 256.055 23.96C255.303 24.76 254.223 25.376 252.815 25.808C251.423 26.224 249.767 26.432 247.847 26.432V26.648C247.847 27.736 248.031 28.592 248.398 29.216C248.783 29.824 249.311 30.128 249.983 30.128C250.799 30.128 251.471 29.832 251.999 29.24C252.527 28.632 252.807 27.84 252.839 26.864C253.799 26.864 254.527 27.04 255.023 27.392C255.535 27.744 255.791 28.256 255.791 28.928C255.791 29.6 255.511 30.216 254.951 30.776C254.391 31.336 253.623 31.776 252.647 32.096C251.687 32.432 250.623 32.6 249.455 32.6C247.455 32.6 245.895 32.072 244.775 31.016C243.655 29.96 243.095 28.488 243.095 26.6C243.095 24.888 243.503 23.352 244.319 21.992C245.135 20.616 246.263 19.544 247.703 18.776C249.143 17.992 250.759 17.6 252.551 17.6C254.023 17.6 255.159 17.904 255.959 18.512C256.775 19.12 257.183 19.976 257.183 21.08ZM251.735 20.408C250.951 20.408 250.215 20.808 249.527 21.608C248.855 22.408 248.375 23.416 248.087 24.632C249.671 24.504 250.887 24.176 251.735 23.648C252.599 23.12 253.031 22.432 253.031 21.584C253.031 21.232 252.911 20.952 252.671 20.744C252.431 20.52 252.119 20.408 251.735 20.408Z" fill="white"/>
<path d="M94.4082 47.6781C94.4082 47.6781 70.4173 56.2378 49.25 74.1683C28.0827 92.0988 14.5592 127.829 14.5592 127.829" stroke="#279CDA" stroke-width="1.5" stroke-linecap="round" stroke-dasharray="15 15"/>
<path fill-rule="evenodd" clip-rule="evenodd" d="M3.08932 134.337C4.02189 133.331 5.10104 134.277 5.33078 135.629L7.69103 150.814L18.5 138.5C19.4326 137.494 20.5557 138.04 20.7855 139.393C21.0152 140.745 20.3078 141.149 19.3753 142.155L7.43533 155.038C6.50277 156.044 5.56053 155.763 5.33078 154.411L2.38927 137.094C2.15952 135.742 2.15676 135.343 3.08932 134.337Z" fill="#279CDA"/>
</svg>
