<svg width="24" height="24" viewBox="0 0 24 24" fill="none" xmlns="http://www.w3.org/2000/svg">
<path fill-rule="evenodd" clip-rule="evenodd" d="M12.1555 7.26669C12.1555 6.08342 15.1192 5.11157 18.6398 5.00033C18.8159 4.9947 18.9867 5.06073 19.1133 5.18334C19.2398 5.30595 19.3112 5.47465 19.3111 5.65084V15.0831C19.3112 15.4349 19.0317 15.7231 18.6801 15.7336C15.142 15.8377 12.1555 16.8122 12.1555 18C12.1555 16.8122 9.16908 15.8377 5.63099 15.7323C5.27937 15.7218 4.99984 15.4336 5 15.0818V5.65084C4.99991 5.47465 5.07129 5.30595 5.19783 5.18334C5.32436 5.06073 5.49522 4.9947 5.67132 5.00033C9.1912 5.11157 12.1555 6.08342 12.1555 7.26669Z" stroke="#82818A" stroke-linecap="round" stroke-linejoin="round"/>
<path d="M12.1555 7.2666V17.9186" stroke="#82818A" stroke-linecap="round" stroke-linejoin="round"/>
</svg>
