<svg width="18" height="18" viewBox="0 0 18 18" fill="none" xmlns="http://www.w3.org/2000/svg">
<path opacity="0.7" d="M9.94064 14.6302L9.81309 15.268C9.73735 15.6467 10.027 16 10.4132 16C10.5755 16 10.7312 15.9355 10.8459 15.8208L12.3334 14.3333L16.1119 10.8454C16.4351 10.5471 16.5045 10.063 16.2783 9.68595C15.9676 9.1682 15.2531 9.08025 14.8262 9.50719L10.2141 14.1192C10.0745 14.2588 9.97936 14.4366 9.94064 14.6302Z" fill="#219653"/>
<path fill-rule="evenodd" clip-rule="evenodd" d="M16.0867 10.9133L11 16L8.5 16.5L9 14L14.0867 8.91333C14.351 8.64855 14.7098 8.49976 15.084 8.49976C15.4582 8.49976 15.817 8.64855 16.0813 8.91333L16.0867 8.91867C16.3514 9.18303 16.5002 9.54184 16.5002 9.916C16.5002 10.2902 16.3514 10.649 16.0867 10.9133V10.9133Z" stroke="#130E20" stroke-width="1.5" stroke-linecap="round" stroke-linejoin="round"/>
<path d="M3.5 5.5H10.5" stroke="#130E20" stroke-width="1.5" stroke-linecap="round" stroke-linejoin="round"/>
<path d="M3.5 8.5H10.5" stroke="#130E20" stroke-width="1.5" stroke-linecap="round" stroke-linejoin="round"/>
<path d="M3.5 11.5H7" stroke="#130E20" stroke-width="1.5" stroke-linecap="round" stroke-linejoin="round"/>
<path d="M6 14.5H2.5C1.94772 14.5 1.5 14.0523 1.5 13.5V2.5C1.5 1.94772 1.94772 1.5 2.5 1.5H9.586C9.85103 1.50006 10.1052 1.60532 10.2927 1.79267L12.2073 3.70733C12.3947 3.8948 12.4999 4.14897 12.5 4.414V6.5" stroke="#130E20" stroke-width="1.5" stroke-linecap="round" stroke-linejoin="round"/>
</svg>
