<svg width="24" height="24" viewBox="0 0 24 24" fill="none" xmlns="http://www.w3.org/2000/svg">
<path fill-rule="evenodd" clip-rule="evenodd" d="M13.2135 19C10.5405 19 8.00068 17.055 8.00068 14.656C7.96963 12.7867 9.114 11.0987 10.8619 10.4354C10.9322 10.4067 11.0124 10.4168 11.0733 10.462C11.1343 10.5073 11.1673 10.581 11.1602 10.6566C11.038 11.5914 11.3964 12.5247 12.113 13.1373C12.2801 13.2789 12.5266 13.2737 12.6876 13.1252C13.4521 12.4203 15.327 10.0919 11.9792 6.36243C11.9187 6.29511 11.9062 6.19731 11.948 6.11699C11.9898 6.03667 12.077 5.99069 12.1669 6.00159C15.3108 6.38791 18.4263 9.93494 18.4263 13.3528C18.4263 16.2488 16.6887 19 13.2135 19Z" fill="#FBB83C"/>
<path d="M16.1052 13.7822C16.1784 15.6975 14.6888 17.3112 12.7738 17.3911" stroke="#A6A5AA" stroke-width="1.3" stroke-linecap="round" stroke-linejoin="round"/>
<path fill-rule="evenodd" clip-rule="evenodd" d="M12.2186 21C8.51755 21 5.00091 18.307 5.00091 14.9852C4.95793 12.397 6.54244 10.0597 8.96264 9.14127C9.05997 9.10158 9.17096 9.11558 9.25538 9.1782C9.3398 9.24082 9.3854 9.34297 9.37566 9.44763C9.20644 10.742 9.70274 12.0342 10.6949 12.8825C10.9263 13.0785 11.2675 13.0713 11.4905 12.8656C12.5491 11.8896 15.145 8.66571 10.5096 3.50182C10.4258 3.40861 10.4086 3.2732 10.4665 3.16199C10.5243 3.05078 10.645 2.98711 10.7695 3.0022C15.1226 3.53711 19.4364 8.44837 19.4364 13.1808C19.4364 17.1906 17.0305 21 12.2186 21Z" stroke="#A6A5AA" stroke-width="1.3" stroke-linecap="round" stroke-linejoin="round"/>
</svg>
