<svg width="24" height="24" viewBox="0 0 24 24" fill="none" xmlns="http://www.w3.org/2000/svg">
<path d="M19 9.7666V17.1333C19 17.6119 18.612 17.9999 18.1333 17.9999H6.86667C6.38802 17.9999 6 17.6119 6 17.1333V9.7666" stroke="#82818A" stroke-linecap="round" stroke-linejoin="round"/>
<path fill-rule="evenodd" clip-rule="evenodd" d="M19 8.03333H6V5.86667C6 5.38802 6.38802 5 6.86667 5H18.1333C18.612 5 19 5.38802 19 5.86667V8.03333Z" stroke="#82818A" stroke-linecap="round" stroke-linejoin="round"/>
<path d="M9.8999 8.03333L10.7666 5" stroke="#82818A" stroke-linecap="round" stroke-linejoin="round"/>
<path d="M14.2334 8.03333L15.1001 5" stroke="#82818A" stroke-linecap="round" stroke-linejoin="round"/>
<path fill-rule="evenodd" clip-rule="evenodd" d="M11.0485 15.3482C10.8952 15.4247 10.7133 15.4163 10.5676 15.3262C10.4219 15.2361 10.3333 15.0769 10.3333 14.9056V11.5615C10.3333 11.3901 10.4219 11.231 10.5676 11.1409C10.7133 11.0508 10.8952 11.0424 11.0485 11.1189L14.3933 12.7915C14.5608 12.8752 14.6667 13.0463 14.6667 13.2335C14.6667 13.4208 14.5608 13.5919 14.3933 13.6755L11.0485 15.3482Z" stroke="#82818A" stroke-linecap="round" stroke-linejoin="round"/>
</svg>
