<svg width="10" height="10" viewBox="0 0 10 10" fill="none" xmlns="http://www.w3.org/2000/svg">
<path fill-rule="evenodd" clip-rule="evenodd" d="M2.91683 2.39616C2.91683 2.16604 3.10338 1.97949 3.3335 1.97949H8.3335C8.56361 1.97949 8.75016 2.16604 8.75016 2.39616C8.75016 2.62628 8.56362 2.81283 8.3335 2.81283H3.3335C3.10338 2.81283 2.91683 2.62628 2.91683 2.39616ZM2.91675 4.89583C2.91675 4.66571 3.1033 4.47917 3.33341 4.47917H6.66675C6.89687 4.47917 7.08341 4.66571 7.08341 4.89583C7.08341 5.12595 6.89687 5.3125 6.66675 5.3125H3.33341C3.1033 5.3125 2.91675 5.12595 2.91675 4.89583ZM3.33341 6.97917C3.1033 6.97917 2.91675 7.16571 2.91675 7.39583C2.91675 7.62595 3.1033 7.8125 3.33341 7.8125H7.50008C7.7302 7.8125 7.91675 7.62595 7.91675 7.39583C7.91675 7.16571 7.7302 6.97917 7.50008 6.97917H3.33341Z" fill="#130E20"/>
<path fill-rule="evenodd" clip-rule="evenodd" d="M1.45825 2.91699C1.80343 2.91699 2.08325 2.63717 2.08325 2.29199C2.08325 1.94681 1.80343 1.66699 1.45825 1.66699C1.11307 1.66699 0.833252 1.94681 0.833252 2.29199C0.833252 2.63717 1.11307 2.91699 1.45825 2.91699ZM1.45833 5.41667C1.80351 5.41667 2.08333 5.13684 2.08333 4.79167C2.08333 4.44649 1.80351 4.16667 1.45833 4.16667C1.11316 4.16667 0.833333 4.44649 0.833333 4.79167C0.833333 5.13684 1.11316 5.41667 1.45833 5.41667ZM2.08333 7.29167C2.08333 7.63684 1.80351 7.91667 1.45833 7.91667C1.11316 7.91667 0.833333 7.63684 0.833333 7.29167C0.833333 6.94649 1.11316 6.66667 1.45833 6.66667C1.80351 6.66667 2.08333 6.94649 2.08333 7.29167Z" fill="#130E20"/>
</svg>
