<svg width="18" height="19" viewBox="0 0 18 19" fill="none" xmlns="http://www.w3.org/2000/svg">
<path d="M17.1484 8.62891C17.0833 10.3281 16.6602 11.6823 15.8789 12.6914C15.0977 13.7005 14.056 14.2051 12.7539 14.2051C12.2201 14.2051 11.748 14.0911 11.3379 13.8633C10.9277 13.6289 10.6087 13.3001 10.3809 12.877C9.74284 13.7363 8.88672 14.166 7.8125 14.166C7.1875 14.166 6.64062 13.9837 6.17188 13.6191C5.70312 13.248 5.35807 12.724 5.13672 12.0469C4.92188 11.3698 4.85677 10.6016 4.94141 9.74219C5.13672 8.11458 5.66081 6.80599 6.51367 5.81641C7.36654 4.82682 8.41146 4.33203 9.64844 4.33203C10.6055 4.33203 11.429 4.55339 12.1191 4.99609L12.7344 5.40625L12.2363 11.1387C12.1257 12.0436 12.4382 12.4961 13.1738 12.4961C13.7272 12.4961 14.1895 12.1445 14.5605 11.4414C14.9382 10.7318 15.1465 9.82682 15.1855 8.72656C15.2962 6.55208 14.8438 4.8724 13.8281 3.6875C12.819 2.5026 11.3379 1.91016 9.38477 1.91016C8.14128 1.91016 7.03451 2.22917 6.06445 2.86719C5.10091 3.4987 4.33594 4.39714 3.76953 5.5625C3.20964 6.72135 2.89388 8.04297 2.82227 9.52734C2.7181 11.806 3.17383 13.5475 4.18945 14.752C5.20508 15.9629 6.72852 16.5684 8.75977 16.5684C9.30664 16.5684 9.88607 16.5033 10.498 16.373C11.11 16.2493 11.6081 16.1029 11.9922 15.9336L12.3535 17.5547C11.9564 17.8151 11.4193 18.0234 10.7422 18.1797C10.0716 18.3424 9.39779 18.4238 8.7207 18.4238C6.94336 18.4238 5.43945 18.082 4.20898 17.3984C2.98503 16.7214 2.07357 15.7155 1.47461 14.3809C0.875651 13.0462 0.608724 11.4284 0.673828 9.52734C0.751953 7.73047 1.16536 6.1224 1.91406 4.70312C2.66927 3.27734 3.69792 2.17708 5 1.40234C6.30859 0.621094 7.7832 0.230469 9.42383 0.230469C11.0645 0.230469 12.4805 0.572266 13.6719 1.25586C14.8633 1.93294 15.7585 2.90951 16.3574 4.18555C16.9564 5.46159 17.2201 6.94271 17.1484 8.62891ZM7.38281 9.74219C7.3112 10.5885 7.3763 11.2298 7.57812 11.666C7.78646 12.0957 8.11849 12.3105 8.57422 12.3105C8.88021 12.3105 9.16016 12.1738 9.41406 11.9004C9.67448 11.627 9.88932 11.2363 10.0586 10.7285L10.4492 6.27539C10.2539 6.22331 10.0521 6.19727 9.84375 6.19727C9.11458 6.19727 8.55143 6.48372 8.1543 7.05664C7.76367 7.62305 7.50651 8.51823 7.38281 9.74219Z" fill="#A6A5AA"/>
</svg>
