<svg width="24" height="24" viewBox="0 0 24 24" fill="none" xmlns="http://www.w3.org/2000/svg">
<path d="M8.05 12.4C8.05 12.759 7.75899 13.05 7.4 13.05C7.04102 13.05 6.75 12.759 6.75 12.4C6.75 12.041 7.04101 11.75 7.4 11.75C7.75899 11.75 8.05 12.041 8.05 12.4Z" fill="#82818A" stroke="#82818A" stroke-width="1.5" stroke-linecap="round" stroke-linejoin="round"/>
<path d="M17.25 12.4C17.25 12.759 16.9589 13.05 16.6 13.05C16.241 13.05 15.95 12.759 15.95 12.4C15.95 12.041 16.241 11.75 16.6 11.75C16.9589 11.75 17.25 12.041 17.25 12.4Z" fill="#82818A" stroke="#82818A" stroke-width="1.5" stroke-linecap="round" stroke-linejoin="round"/>
<path d="M12.6501 12.4C12.6501 12.759 12.3591 13.05 12.0001 13.05C11.6411 13.05 11.3501 12.759 11.3501 12.4C11.3501 12.041 11.6411 11.75 12.0001 11.75C12.3591 11.75 12.6501 12.041 12.6501 12.4Z" fill="#82818A" stroke="#82818A" stroke-width="1.5" stroke-linecap="round" stroke-linejoin="round"/>
</svg>
