<svg width="48" height="48" viewBox="0 0 48 48" fill="none" xmlns="http://www.w3.org/2000/svg">
<path d="M41.0294 8H6V33.9517H41.0294V8Z" fill="white"/>
<path d="M41.0305 8H23.5152V33.9517H41.0305V8Z" fill="white"/>
<path d="M41.0294 8H6V11.3395H41.0294V8Z" fill="#E0E0E0"/>
<path d="M41.0305 8H23.5152V11.3395H41.0305V8Z" fill="#C0C0C0"/>
<path d="M8.1103 10.5949C8.63412 10.5949 9.05876 10.1805 9.05876 9.66924C9.05876 9.15802 8.63412 8.74359 8.1103 8.74359C7.58648 8.74359 7.16184 9.15802 7.16184 9.66924C7.16184 10.1805 7.58648 10.5949 8.1103 10.5949Z" fill="#FF6838"/>
<path d="M10.9556 10.5949C11.4794 10.5949 11.9041 10.1805 11.9041 9.66924C11.9041 9.15802 11.4794 8.74359 10.9556 8.74359C10.4318 8.74359 10.0071 9.15802 10.0071 9.66924C10.0071 10.1805 10.4318 10.5949 10.9556 10.5949Z" fill="#FF6838"/>
<path d="M13.8009 10.5949C14.3247 10.5949 14.7493 10.1805 14.7493 9.66924C14.7493 9.15802 14.3247 8.74359 13.8009 8.74359C13.277 8.74359 12.8524 9.15802 12.8524 9.66924C12.8524 10.1805 13.277 10.5949 13.8009 10.5949Z" fill="#FF6838"/>
<path d="M38.7186 24.3632L40.0184 23.0946C39.2753 22.0571 38.3495 21.1536 37.2864 20.4284L35.9866 21.6969C35.0631 21.1127 34.0257 20.6857 32.9139 20.4541V18.6594C32.2867 18.5511 31.6412 18.4944 30.9821 18.4944C30.3231 18.4944 29.6775 18.5511 29.0503 18.6594V20.4541C27.9386 20.6856 26.9012 21.1127 25.9776 21.6968L24.6778 20.4283C23.6147 21.1535 22.6889 22.057 21.9458 23.0945L23.2456 24.3631C22.647 25.2643 22.2095 26.2768 21.9722 27.3618H20.1332C20.0223 27.974 19.9642 28.604 19.9642 29.2472C19.9642 29.8903 20.0223 30.5203 20.1332 31.1325H21.9722C22.2094 32.2175 22.647 33.2299 23.2456 34.1313L21.9458 35.3998C22.6889 36.4373 23.6147 37.3409 24.6778 38.0661L25.9776 36.7975C26.9011 37.3818 27.9386 37.8087 29.0503 38.0403V39.835C29.6775 39.9433 30.3231 40 30.9821 40C31.6412 40 32.2867 39.9433 32.9139 39.835V38.0403C34.0257 37.8088 35.063 37.3818 35.9866 36.7975L37.2864 38.0661C38.3495 37.3409 39.2753 36.4373 40.0184 35.3998L38.7186 34.1313C39.3172 33.2299 39.7547 32.2175 39.992 31.1325H41.831C41.9419 30.5203 42 29.8903 42 29.2472C42 28.604 41.9419 27.974 41.831 27.3618H39.992C39.7547 26.2769 39.3172 25.2645 38.7186 24.3632ZM30.9821 33.2185C28.7348 33.2185 26.913 31.4405 26.913 29.2473C26.913 27.054 28.7348 25.276 30.9821 25.276C33.2294 25.276 35.0512 27.054 35.0512 29.2473C35.0512 31.4405 33.2293 33.2185 30.9821 33.2185Z" fill="#005C83"/>
<path d="M41.8309 31.1327C41.9418 30.5206 41.9999 29.8906 41.9999 29.2473C41.9999 28.6041 41.9418 27.9741 41.8309 27.3619H39.9919C39.7547 26.2769 39.3171 25.2644 38.7186 24.3632L40.0184 23.0946C39.2753 22.0571 38.3495 21.1536 37.2864 20.4284L35.9866 21.6969C35.0631 21.1127 34.0257 20.6856 32.9139 20.4541V18.6594C32.2867 18.5511 31.6412 18.4944 30.9821 18.4944C30.9394 18.4944 30.8971 18.4967 30.8546 18.4971V25.2791C30.897 25.2779 30.9394 25.276 30.9821 25.276C33.2294 25.276 35.0512 27.0539 35.0512 29.2472C35.0512 31.4404 33.2295 33.2184 30.9821 33.2184C30.9394 33.2184 30.897 33.2165 30.8546 33.2153V39.9973C30.8972 39.9977 30.9395 40 30.9821 40C31.6413 40 32.2867 39.9433 32.9139 39.835V38.0403C34.0257 37.8088 35.063 37.3818 35.9866 36.7975L37.2864 38.0661C38.3495 37.3409 39.2753 36.4373 40.0184 35.3997L38.7186 34.1312C39.3172 33.2298 39.7547 32.2174 39.9919 31.1324H41.8309V31.1327Z" fill="#00263F"/>
<path d="M11.4222 14.7271C11.4004 14.7059 11.3406 14.6662 11.2427 14.6076C11.1448 14.5493 11.0224 14.4881 10.8755 14.4245C10.7286 14.3609 10.5681 14.305 10.3941 14.2573C10.22 14.2095 10.0459 14.1856 9.87182 14.1856C9.64335 14.1856 9.46795 14.2255 9.34552 14.3051C9.2231 14.3847 9.16194 14.5016 9.16194 14.6555C9.16194 14.7511 9.18906 14.8307 9.24352 14.8943C9.29787 14.9581 9.37531 15.0152 9.47614 15.0655C9.57666 15.1161 9.70185 15.1625 9.8514 15.2049C10.001 15.2475 10.1737 15.2952 10.3696 15.3483C10.647 15.4227 10.8972 15.5036 11.1202 15.5912C11.3433 15.6788 11.5336 15.7877 11.6914 15.9177C11.8491 16.0478 11.9701 16.2057 12.0546 16.3914C12.1388 16.5774 12.181 16.8003 12.181 17.0604C12.181 17.3788 12.1199 17.6484 11.9974 17.8686C11.8751 18.089 11.7131 18.2668 11.512 18.4022C11.3106 18.5375 11.0781 18.6358 10.8143 18.6968C10.5504 18.7577 10.2799 18.7883 10.0024 18.7883C9.79024 18.7883 9.5741 18.7723 9.35372 18.7406C9.13343 18.7087 8.91719 18.6623 8.70499 18.6013C8.49279 18.5403 8.28612 18.4673 8.08488 18.3822C7.88353 18.2974 7.69856 18.1991 7.53008 18.0876L8.11753 16.9489C8.14466 16.9756 8.21805 17.0259 8.33782 17.1002C8.45748 17.1747 8.60426 17.2489 8.77849 17.3232C8.9525 17.3976 9.14832 17.464 9.36595 17.5223C9.58346 17.5807 9.80375 17.6099 10.0268 17.6099C10.5 17.6099 10.7367 17.4694 10.7367 17.1878C10.7367 17.0817 10.7013 16.9941 10.6306 16.9251C10.5599 16.8562 10.4619 16.7937 10.3369 16.7379C10.2117 16.6822 10.0648 16.6304 9.89629 16.5826C9.72759 16.5349 9.54262 16.4818 9.34138 16.4234C9.07482 16.3438 8.84369 16.2575 8.64777 16.1646C8.45195 16.0718 8.28878 15.9643 8.15817 15.8421C8.02755 15.72 7.93097 15.5794 7.86853 15.42C7.80588 15.2608 7.77472 15.075 7.77472 14.8626C7.77472 14.5654 7.83183 14.3025 7.94607 14.0743C8.06031 13.8461 8.21539 13.6535 8.41121 13.4969C8.60703 13.3403 8.83412 13.2222 9.09259 13.1425C9.35084 13.0629 9.6242 13.023 9.91256 13.023C10.1192 13.023 10.3205 13.0417 10.5164 13.0788C10.7122 13.1159 10.8985 13.1638 11.0752 13.2221C11.252 13.2806 11.4192 13.3469 11.5771 13.4212C11.7348 13.4956 11.8762 13.5699 12.0014 13.6442L11.4222 14.7271Z" fill="#005C83"/>
<path d="M16.7912 18.3822C16.5844 18.5043 16.3655 18.5985 16.1344 18.6648C15.9032 18.7312 15.657 18.7644 15.396 18.7644C14.9826 18.7644 14.6072 18.6835 14.27 18.5215C13.9328 18.3595 13.643 18.1445 13.401 17.8764C13.1589 17.6084 12.9712 17.3018 12.838 16.9567C12.7047 16.6116 12.6382 16.2559 12.6382 15.8897C12.6382 15.5181 12.7075 15.1598 12.8462 14.8146C12.9849 14.4696 13.178 14.1644 13.4256 13.8989C13.673 13.6334 13.9668 13.4224 14.3068 13.2657C14.6468 13.1092 15.018 13.0308 15.4206 13.0308C15.8339 13.0308 16.2093 13.1144 16.5466 13.2817C16.8838 13.449 17.1735 13.6679 17.4155 13.9387C17.6575 14.2094 17.8438 14.5174 17.9744 14.8624C18.1051 15.2075 18.1703 15.5579 18.1703 15.9135C18.1703 16.2639 18.1104 16.5971 17.9907 16.9129C17.871 17.2288 17.7051 17.5168 17.493 17.7769L18.3743 18.7245H17.1096L16.7912 18.3822ZM15.4122 17.6017C15.6189 17.6017 15.8011 17.5619 15.9589 17.4823L15.045 16.4949H16.3015L16.6034 16.8213C16.7393 16.5294 16.8074 16.2188 16.8074 15.8897C16.8074 15.6721 16.776 15.461 16.7136 15.2565C16.651 15.0522 16.5599 14.8717 16.4402 14.7151C16.3206 14.5585 16.1737 14.4324 15.9995 14.3368C15.8254 14.2412 15.6269 14.1935 15.4039 14.1935C15.1699 14.1935 14.966 14.2426 14.792 14.3408C14.6179 14.4391 14.4723 14.569 14.3555 14.731C14.2383 14.893 14.1501 15.0761 14.0903 15.2804C14.0304 15.4848 14.0005 15.6933 14.0005 15.9055C14.0005 16.1233 14.0317 16.3343 14.0943 16.5387C14.1568 16.7431 14.2465 16.9236 14.3636 17.0801C14.4805 17.2368 14.6274 17.3628 14.8043 17.4584C14.9811 17.554 15.1837 17.6017 15.4122 17.6017Z" fill="#005C83"/>
<path d="M18.9697 18.7247V13.0709H20.3079V17.578H23.1148V18.7247H18.9697Z" fill="#005C83"/>
</svg>
